# xmcd CD database file
#
# Track frame offsets:
#	150
#	16445
#	33270
#	49897
#	62510
#	77677
#	90930
#	117312
#	137730
#	154577
#	169877
#
# Disc length: 2510 seconds
#
# Revision: 0
# Processed by: cddbd v1.4PL0 Copyright (c) Steve Scherf et al.
# Submitted via: CDex 1.50beta10
#
DISCID=8109cc0b
DTITLE=Sam Lay Blues Band - Stone Blues
DYEAR=1996
DGENRE=Blues
TTITLE0=29 Miles
TTITLE1=Walkin' Thru the Park
TTITLE2=I Got Wise
TTITLE3=Short Haired Woman
TTITLE4=Birmingham
TTITLE5=Hide and Seek
TTITLE6=Jelly, Jelly
TTITLE7=Red White and Blues
TTITLE8=The Shuffle Master
TTITLE9=That's Alright Mama
TTITLE10=Stone Blues
EXTD=YEAR: 1996
EXTT0=
EXTT1=
EXTT2=
EXTT3=
EXTT4=
EXTT5=
EXTT6=
EXTT7=
EXTT8=
EXTT9=
EXTT10=
PLAYORDER=
